<svg xmlns="http://www.w3.org/2000/svg" width="26" height="41"><path fill="#a3acb5" d="M22.413 26.094c-.002.098-.064 2.398-1.212 5.381a18.991 18.991 0 01-7.879 9.433A.603.603 0 0113 41a.603.603 0 01-.322-.09 18.993 18.993 0 01-7.879-9.433c-1.148-2.984-1.21-5.284-1.212-5.382a.604.604 0 01.597-.612h.013c.33 0 .602.26.61.585 0 .023.065 2.23 1.15 5.026A17.796 17.796 0 0013 39.688a17.796 17.796 0 007.043-8.595c.804-2.071 1.048-3.819 1.12-4.594L13 23.703l-6.13 2.1a.613.613 0 01-.777-.37.599.599 0 01.376-.765l6.33-2.166a.61.61 0 01.402 0l8.803 3.013a.6.6 0 01.41.579zm-5.441 3.662l-4.21 4.145a.62.62 0 01-.432.177.62.62 0 01-.431-.177l-2.68-2.637a.594.594 0 010-.85.616.616 0 01.863 0l2.248 2.212 3.78-3.72a.619.619 0 01.862 0 .595.595 0 010 .85zM26 23.768v3.793c0 1.038-.859 1.884-1.914 1.884a.606.606 0 01-.61-.6c0-.334.273-.6.61-.6a.69.69 0 00.694-.684v-3.793c0-.995-.562-1.89-1.465-2.334L18.373 19a2.506 2.506 0 01-1.419-2.257V15.43a6.554 6.554 0 01-.388.238.61.61 0 01-.834-.219.595.595 0 01.223-.82c1.823-1.04 2.956-2.97 2.956-5.04V5.736C18.91 3.236 16.259 1.2 13 1.2c-3.26 0-5.91 2.035-5.91 4.536v3.85c0 2.07 1.131 4 2.953 5.039a.595.595 0 01.222.82.613.613 0 01-.834.22 6.234 6.234 0 01-.386-.237v1.314c0 .961-.543 1.828-1.418 2.257l-4.942 2.434a2.592 2.592 0 00-1.465 2.334v3.793a.69.69 0 00.694.684c.337 0 .61.266.61.6 0 .331-.273.6-.61.6C.86 29.445 0 28.6 0 27.561v-3.793c0-1.453.82-2.76 2.14-3.408l4.941-2.433c.46-.226.744-.68.744-1.184v-2.33A6.985 6.985 0 015.87 9.588v-3.85C5.869 2.572 9.068 0 13 0s7.131 2.572 7.131 5.737v3.85c0 1.815-.72 3.538-1.956 4.827v2.33c0 .503.285.957.744 1.183l4.941 2.433A3.783 3.783 0 0126 23.768z"/></svg>